<svg xmlns="http://www.w3.org/2000/svg" fill="none" viewBox="0 0 259 259">
  <path fill="#FFD230" d="M0 17h27v209.5C27 256 0 259 0 259V17Z"/>
  <path fill="#57B846" d="M0 0h27v209.5C27 239 0 242 0 242V0Z"/>
  <path fill="#076796" d="M0 0h27v194.783C27 222.211 0 225 0 225V0Z"/>
  <path fill="#672166" d="M0 0h27v180.066C27 205.421 0 208 0 208V0Z"/>
  <path fill="#403440" d="M0 0h27v165.349C27 188.632 0 191 0 191V0ZM62 27H27v34.427C27.001 27 27.192 27 62 27Z"/>
  <path fill="#FFD230" d="M17 0v27h209.5C256 27 259 0 259 0H17Z"/>
  <path fill="#57B846" d="M0 0v27h209.5C239 27 242 0 242 0H0Z"/>
  <path fill="#076796" d="M0 0v27h194.783C222.211 27 225 0 225 0H0Z"/>
  <path fill="#672166" d="M0 0v27h180.066C205.421 27 208 0 208 0H0Z"/>
  <path fill="#403440" d="M0 0v27h165.349C188.632 27 191 0 191 0H0Z"/>
</svg>
